<?xml version="1.0" encoding="UTF-8"?> <!-- Creator: CorelDRAW X7 --> <svg xmlns="http://www.w3.org/2000/svg" xmlns:xlink="http://www.w3.org/1999/xlink" xml:space="preserve" width="1500px" height="1500px" shape-rendering="geometricPrecision" text-rendering="geometricPrecision" image-rendering="optimizeQuality" fill-rule="evenodd" clip-rule="evenodd" viewBox="0 0 1502495 1502495"> <g id="Capa_x0020_1"> <metadata id="CorelCorpID_0Corel-Layer"></metadata> <rect fill="#FEFEFE" stroke="#98CD1F" stroke-width="29460.7" x="14730" y="14730" width="1473035" height="1473035"></rect> <g id="_719953792"> <path fill="black" d="M1095223 1332125c10685,-18708 25534,-34706 43396,-46752 26188,-21463 46457,-49261 58887,-80755 7227,-17443 15805,-34294 25656,-50401 7849,-7439 16629,-13829 26122,-19011 26024,-17460 49551,-38381 69933,-62186 19788,-16948 40408,-32897 61785,-47789 993,-835 1870,-1800 2605,-2870 452,-739 685,-1579 691,-2425 2,-578 -101,-1159 -314,-1713 -7030,-14622 -14926,-28809 -23647,-42489 -384,-584 -1036,-936 -1735,-934 -721,96 -1383,452 -1860,1001 -25448,30582 -51571,60596 -78350,90020 -23179,19528 -47295,37917 -72261,55104 -6352,5424 -10548,12944 -11831,21197 -10231,36267 -26832,70425 -49026,100878 -18325,21486 -36497,43104 -54515,64849 -7613,13417 -14828,27056 -21633,40901 -13808,20966 -28605,41264 -44342,60825 -117,198 -158,432 -118,658 12,59 47,109 98,139 28,17 60,26 93,27l13 0c21,-1 42,-4 62,-12 4579,-2410 8949,-5197 13066,-8331 16675,-11086 30390,-26077 39955,-43668 5871,-8679 11627,-17434 17270,-26263l0 0z"></path> <path fill="black" d="M374573 1322166c-11952,-20093 -26294,-38663 -42714,-55304 -30430,-31882 -52800,-70575 -65245,-112856 -2927,-8757 -5919,-17493 -8975,-26206 -913,-1648 -2186,-3067 -3725,-4153 -21504,-15974 -42952,-32022 -64344,-48145 -21540,-20591 -41719,-42561 -60407,-65771 -8504,-10150 -17064,-20253 -25680,-30308 -1182,-1485 -2536,-2825 -4033,-3991 -475,-283 -1059,-316 -1563,-88 -818,369 -1517,961 -2018,1706 -8469,13206 -16114,26924 -22888,41075 -123,528 -181,1060 -179,1585 9,2279 1160,4448 3132,5723 24058,16226 46852,34253 68184,53924 23863,27477 52199,50722 83811,68753 9480,10094 16859,21971 21708,34943 10935,27307 25250,53135 42610,76881 14674,16089 30824,30765 48239,43838 13520,16535 25847,34011 36889,52294 8796,15225 20058,28886 33327,40423 6106,4391 12448,8448 18995,12152 378,126 797,11 1057,-292 246,-286 274,-700 70,-1018 -19041,-22885 -36082,-47363 -50936,-73163 -1822,-3979 -3593,-7979 -5315,-12002l0 0z"></path> <path fill="black" d="M1038171 1300889c26178,-38769 56990,-74199 91753,-105502 17085,-16441 30589,-36234 39669,-58137 2423,-11611 6231,-22888 11342,-33591 4526,-5403 9780,-10151 15613,-14109 31617,-24445 60730,-51968 86911,-82163 16261,-26707 31034,-54292 44253,-82628 328,-911 289,-1915 -109,-2798 -1162,-2094 -2619,-4011 -4326,-5692 -10179,-11715 -21847,-22049 -34705,-30738 -1292,-937 -2720,-1670 -4235,-2173 -295,-68 -605,-20 -866,133 -296,173 -526,439 -653,755 -4669,26612 -12333,52611 -22845,77499 -18857,36262 -43649,69113 -73349,97193 -25352,18873 -47060,42199 -64065,68841 -2164,8816 -4551,17575 -7160,26271 -12978,23436 -28764,45203 -47010,64818 -19167,27587 -36279,56547 -51199,86644l-43171 69594c-1985,3173 -3752,6477 -5290,9888 -92,275 -3,578 224,757 215,171 517,171 731,1 23783,-27504 46624,-55809 68487,-84863l0 0z"></path> <path fill="black" d="M434433 1295812c-13956,-28784 -30640,-56162 -49825,-81758 -19061,-19556 -34536,-42311 -45716,-67225 -1286,-4697 -2180,-9492 -2675,-14337 -6639,-14250 -15897,-27126 -27291,-37957 -14448,-16187 -30576,-30792 -48113,-43568 -26436,-27926 -48650,-59563 -65941,-93909 -9065,-22868 -15771,-46602 -20014,-70832 -196,-823 -641,-1566 -1274,-2128 -600,-486 -1419,-605 -2133,-310 -939,474 -1853,996 -2738,1564 -14518,10003 -27609,21933 -38911,35465 -772,1209 -966,2698 -533,4066 13428,28240 28246,55796 44400,82569 29643,34180 62882,65067 99141,92128 7224,10615 11941,22734 13795,35440 8788,22655 22370,43142 39817,60056 18368,16472 35668,34097 51797,52768 24610,32381 49481,64563 74610,96543 10429,13339 21255,26363 32465,39053 460,553 1064,966 1744,1194 145,34 293,-43 350,-180 112,-271 139,-570 78,-858 -1133,-3058 -2645,-5964 -4498,-8648 -16792,-25997 -32974,-52384 -48535,-79136l0 0z"></path> <path fill="black" d="M493221 1250308c-17416,-28945 -33493,-58676 -48179,-89098 -3576,-9139 -5456,-18853 -5548,-28666 -7848,-21635 -20192,-41360 -36220,-57876 -11598,-13472 -24789,-25485 -39283,-35778 -30226,-37514 -54042,-79767 -70484,-125050 -3296,-6992 -9800,-11934 -17421,-13235l-2450 -526c-5623,-3127 -9458,-8707 -10358,-15078 -2616,-12583 -5283,-25155 -7999,-37717 -402,-1256 -1262,-2316 -2409,-2969 -751,-279 -1569,-318 -2343,-113 -14794,4876 -29129,11045 -42840,18437 -1167,685 -1699,2091 -1280,3378 732,1768 1791,3382 3121,4758 12362,16214 22562,33967 30345,52811 13901,26617 31939,50859 53441,71821 16713,22369 33205,44902 49474,67594 12926,11878 24943,24708 35948,38383 7769,13842 14423,28280 19898,43178l47739 72061c25344,40401 50870,80686 76577,120856 106,126 266,194 431,182 130,-9 239,-104 264,-232 193,-1259 61,-2546 -383,-3740 -5857,-29120 -15980,-57216 -30041,-83381l0 0z"></path> <path fill="black" d="M990842 1247850c20538,-33516 42166,-66353 64847,-98457 6627,-15400 13680,-30613 21150,-45622 9125,-13642 20262,-25823 33035,-36129 16703,-21069 32655,-42722 47827,-64919 15778,-16617 30426,-34270 43845,-52844 12162,-19236 23003,-39274 32451,-59978 4844,-7906 10301,-15419 16322,-22470 644,-739 1021,-1673 1070,-2652 -83,-824 -576,-1550 -1311,-1930 -13876,-7386 -28387,-13510 -43357,-18300 -1470,-419 -3052,-63 -4202,944 -881,1254 -1480,2685 -1757,4193 -1950,15220 -5539,30183 -10706,44631 -1676,3193 -4684,5477 -8209,6235 -10572,2021 -19014,9991 -21636,20431 -15732,42668 -38506,82397 -67375,117535 -30847,22680 -55865,52362 -72995,86604 -2659,9507 -4470,19231 -5412,29059 -11747,28411 -25986,55727 -42551,81626 -17514,28873 -30047,60485 -37076,93514 -506,1618 -764,3303 -765,4999 48,478 327,903 747,1138 323,180 729,101 961,-185l55097 -87423 0 0z"></path> <path fill="black" d="M534829 1166017c-6871,-17851 -17264,-34138 -30561,-47889 -8151,-11972 -11427,-26601 -9162,-40906 11,-21771 -8912,-42593 -24683,-57601 -13553,-13630 -27775,-26579 -42615,-38797 -11966,-14772 -20759,-31850 -25832,-50171 -8202,-22499 -19796,-43613 -34381,-62608 -4630,-8900 -7084,-18772 -7157,-28804 -2809,-12036 -10558,-22334 -21345,-28367 -732,-247 -1532,-189 -2222,160 -11783,6004 -22747,13496 -32623,22290 -2260,2236 -2785,5689 -1292,8495 3440,5935 7394,11556 11817,16799 5185,11501 12196,22088 20761,31350 1735,2023 2706,4588 2747,7251 2089,25245 14271,48580 33788,64725 26183,25943 46652,57073 60096,91393 34704,60500 71522,119761 110388,177676 4740,7495 9459,15003 14155,22525 122,159 317,243 516,221 183,-20 338,-145 395,-321 339,-1245 333,-2558 -15,-3801 -5689,-28357 -13299,-56295 -22775,-83620l0 0z"></path> <path fill="black" d="M956421 1166194c27298,-41084 52414,-83578 75244,-127303 13798,-30624 33329,-58322 57543,-81600 17280,-15497 27760,-37178 29171,-60345 123,-1093 432,-2157 913,-3145 700,-1440 1566,-2794 2579,-4034 7836,-8528 14181,-18314 18770,-28948 5042,-6379 9764,-13007 14147,-19855 881,-1837 610,-4020 -692,-5586 -9617,-9747 -20776,-17844 -33026,-23964 -1155,-690 -2580,-754 -3792,-170 -14832,8877 -23535,25232 -22609,42493 -3945,13229 -10641,25475 -19651,35934 -12635,22178 -23140,45503 -31376,69663 -6225,14396 -16625,26593 -29856,35014 -21081,14990 -37803,35308 -48456,58879 -3063,12558 -4172,25514 -3290,38410 -293,13925 -6566,27049 -17216,36024 -16542,21179 -27992,45878 -33464,72188 -4810,16949 -8879,34099 -12195,51402l-324 2629c10,74 49,140 109,184 59,45 135,62 208,50 289,-51 552,-200 745,-422 18614,-29311 37454,-58478 56518,-87498l0 0z"></path> <path fill="black" d="M757192 1067541c-2439,-9592 -8171,-18023 -16194,-23819 -838,-503 -1830,-684 -2791,-510 -1912,474 -3847,848 -5798,1122 -4284,494 -8624,123 -12762,-1091 -1585,-339 -3239,23 -4539,991 -16686,13961 -22038,37322 -13095,57155 5516,20707 17688,39026 34641,52133 1294,979 2739,1739 4279,2249 401,93 821,-35 1102,-336 381,-408 598,-941 612,-1499 -592,-3943 -1094,-7898 -1507,-11863 90,-13684 4280,-27026 12028,-38305 5677,-11192 7106,-24062 4024,-36227l0 0z"></path> <path fill="black" d="M725708 963334c-1676,-183 -3346,-424 -5006,-723 -854,-169 -1742,2 -2472,478 -3544,2937 -6318,6693 -8082,10943 -7390,16338 -3030,35594 10673,47157 6402,3929 14760,2157 19016,-4032 14485,-15224 14078,-39253 -916,-53976 -804,-615 -1832,-859 -2826,-669 -3395,838 -6903,1116 -10387,822l0 0z"></path> <path fill="black" d="M727812 679188c6377,-210 12744,-652 19089,-1322 1923,-332 3889,-317 5806,44 369,118 691,352 916,667 240,334 373,734 384,1145 -716,5241 -1959,10397 -3710,15389 -669,2393 -1291,4799 -1867,7216 -124,2483 392,4956 1499,7182 2079,5155 5327,9758 9485,13446 2042,1305 4541,1682 6876,1039 17058,-4053 30896,-16480 36751,-33005 479,-1570 1562,-2884 3011,-3654 6626,-2923 11401,-8905 12785,-16013 1383,-7109 -801,-14445 -5848,-19640 -270,-225 -612,-347 -965,-344 -436,3 -862,128 -1232,361 -3204,2614 -6561,5038 -10053,7256 -929,568 -1987,890 -3075,939 -849,-11 -1649,-397 -2186,-1055 -655,-924 -1246,-1892 -1770,-2896 -7289,-8681 -18758,-12655 -29856,-10343 -9540,2121 -19159,3876 -28834,5259 -12246,1054 -24573,-598 -36110,-4838 -11399,-2402 -23286,-105 -32969,6373 -1679,1871 -3107,3955 -4244,6198l-682 976c-543,472 -1297,620 -1978,388 -3495,-1361 -6735,-3301 -9584,-5739 -934,-830 -1976,-1526 -3100,-2071 -651,-241 -1364,-248 -2019,-22 -727,251 -1358,720 -1808,1343 -4213,5518 -5635,12675 -3850,19384 1784,6709 6572,12215 12969,14913 782,418 1419,1062 1829,1849 860,1882 1661,3792 2403,5723 6742,14809 20064,25578 35956,29069 4126,338 8055,-1828 9972,-5498 7096,-7794 8494,-19219 3487,-28494 -1109,-3452 -1940,-6986 -2486,-10569 8,-617 158,-1224 440,-1773 170,-330 466,-578 821,-686 1623,-265 3284,-193 4878,212 6235,1051 12546,1584 18869,1591l0 0zm-79224 -72382c4624,-1933 9432,-3393 14350,-4359 6237,-2082 11931,-5529 16666,-10090 6147,-5085 14753,-5962 21798,-2221 3130,1078 6347,1880 9616,2397 599,-5 1180,-207 1651,-577 289,-226 410,-606 306,-958 -249,-782 -722,-1476 -1359,-1995 -7704,-6955 -17605,-10985 -27977,-11388l-2542 -182c-674,-286 -1146,-906 -1241,-1632 -165,-1477 334,-2951 1362,-4023 3504,-4814 9995,-6354 15289,-3628 8841,3471 16155,9978 20631,18354 2671,3021 6679,4501 10671,3941 5213,1061 10521,-1320 13195,-5918 5188,-9499 14566,-15984 25285,-17485 4549,-273 8763,2390 10470,6614 340,780 289,1677 -138,2412 -427,737 -1179,1227 -2026,1319 -2031,201 -4065,380 -6100,538 -9181,1825 -17671,6171 -24520,12551 -213,296 -330,651 -333,1016 -1,245 119,476 322,616 642,417 1412,589 2170,484 5131,-1114 10212,-2451 15228,-4005 5024,-1645 10544,-510 14512,2984 7975,7525 18117,12347 28988,13783 13237,5532 25020,14045 34430,24874 3206,5453 5402,11438 6484,17670l43 2867c-83,304 -235,584 -446,816 -873,965 -1798,1881 -2772,2742 -5414,6900 -5699,16523 -704,23730 604,1292 1365,2504 2263,3612 345,423 777,768 1265,1013 359,181 763,253 1163,209 1056,-125 2057,-538 2893,-1195 9122,-6888 18081,-13990 26869,-21301 8072,-15755 14350,-32366 18715,-49521 5234,-21782 11339,-43347 18301,-64639 19869,-26983 28611,-60569 24417,-93813 -419,-12313 -2734,-24487 -6863,-36093 -2888,-19911 -3922,-40046 -3089,-60147 -5968,-16040 -13795,-31325 -23319,-45543 -5878,-9959 -8970,-21315 -8956,-32878 156,-1295 873,-2456 1962,-3174l1142 -274c921,-158 1852,-244 2785,-259 3664,-172 6617,-3065 6864,-6724 -71,-11594 -2924,-23002 -8319,-33264 -1117,-1479 -2545,-2695 -4183,-3562 -14339,-9986 -30653,-16782 -47841,-19928 -19616,1022 -39009,4656 -57663,10807 -10420,-249 -20837,-583 -31250,-999 -9739,991 -19386,2740 -28853,5228 -8058,-969 -16051,-2424 -23935,-4355 -12012,-1337 -24146,-1124 -36103,632 -9728,-2124 -19395,-4512 -28993,-7163 -18005,-6224 -37698,-5407 -55126,2285 -9193,4190 -18059,9063 -26523,14580 -3354,3085 -5621,7172 -6463,11652 -3424,8298 -4703,17325 -3717,26248 489,2233 2247,3969 4486,4431 1518,198 3037,376 4559,533 903,134 1678,711 2065,1538 765,1878 1024,3924 748,5934 -2472,17401 -9295,33898 -19839,47961 -9267,11476 -13602,26161 -12053,40830 930,22763 -2114,45513 -8995,67231 -3371,23316 -2064,47070 3845,69876 4586,13654 11127,26571 19417,38350 6998,21388 13154,43042 18453,64913 4248,16610 10220,32732 17818,48101 9087,8436 18732,16249 28869,23389 724,571 1646,830 2560,719 851,-239 1567,-815 1982,-1594 4771,-6904 6394,-15507 4465,-23675 -350,-1028 -1000,-1927 -1867,-2581 -1245,-1005 -2499,-1997 -3763,-2978 -595,-545 -949,-1304 -983,-2111 146,-3615 911,-7179 2262,-10536 5848,-13685 16696,-24624 30332,-30584 1593,-880 3224,-1690 4887,-2428l0 0zm156529 35757l298 -732c-66,-796 -416,-1542 -983,-2105 -19100,-18652 -47708,-23628 -71985,-12520l-2370 919c-1583,298 -3219,138 -4715,-461l-2444 -1082c-16244,-5936 -34038,-6088 -50381,-433 -6649,3345 -12882,7458 -18572,12255l-2320 2636c-167,321 -185,699 -51,1036 133,336 407,598 750,717l1654 399c9500,508 19018,-542 28178,-3111 3914,-1248 7925,-2170 11991,-2758 814,-95 1637,-107 2455,-38 816,69 1623,219 2408,449 11205,5382 23579,7868 35992,7231 8055,-2136 16027,-4573 23899,-7305 8250,249 16410,1800 24177,4594 6140,1286 12429,1711 18687,1263l2695 -406 637 -548 0 0zm-51 239693c8263,-14932 14226,-31028 17684,-47741 1945,-6442 4092,-12821 6440,-19127l1486 -3386c194,-279 565,-369 865,-212 496,259 876,695 1066,1221 787,4516 1349,9069 1684,13641 149,993 338,1979 567,2956 169,502 516,924 976,1188 261,150 595,63 749,-197 850,-1978 1682,-3964 2494,-5957 10804,-25591 28674,-47574 51518,-63376 12650,-18188 20414,-39321 22549,-61373 3452,-33340 9695,-66333 18665,-98630 4882,-8783 7477,-18653 7547,-28701 -3676,-21663 -2028,-43894 4801,-64778 637,-3827 1054,-7688 1249,-11563 205,-1768 1053,-3399 2385,-4581 5601,-4065 10292,-9255 13771,-15238l2096 -4808 98 -2385c366,-9591 -1336,-19149 -4990,-28025 -386,-1652 -61,-3390 895,-4791 3180,-4756 5912,-9797 8160,-15058l1878 -3466c224,-269 608,-341 915,-173 471,258 820,691 971,1206 563,4802 1016,9615 1359,14437 281,8235 -385,16474 -1987,24557l-202 2256c48,212 216,375 429,416 297,57 605,-2 860,-167 2546,-2158 4414,-5006 5379,-8201 3650,-10727 4668,-22174 2966,-33376 -707,-4005 -1234,-8039 -1581,-12090 -120,-1193 -91,-2396 86,-3581 191,-1272 527,-2517 1005,-3711 8998,-23266 8554,-49127 -1237,-72070 -16154,-42125 -24109,-86947 -23440,-132056 -391,-1736 -1146,-3368 -2216,-4789 -20634,-34463 -48199,-64269 -80949,-87527 -13742,-7616 -28338,-13576 -43482,-17755 -8351,-2909 -15734,-8071 -21333,-14915 -48238,-30911 -110117,-30670 -158113,617 -11437,10965 -25822,18359 -41395,21278 -28310,11738 -53076,30643 -71865,54854 -12304,14335 -23483,29598 -33437,45654 -804,1512 -1177,3217 -1080,4926 577,46947 -8093,93547 -25515,137146 -7721,21022 -7151,44195 1593,64813 485,1140 805,2343 952,3573 141,1189 108,2393 -99,3572 -3907,14096 -3846,28995 176,43058 1280,3378 3015,6565 5158,9473 351,396 788,706 1277,906 198,81 426,17 550,-157 321,-596 451,-1275 375,-1948 -2316,-12425 -2531,-25150 -637,-37646 279,-817 692,-1583 1218,-2268 212,-236 508,-381 825,-402 254,-18 500,97 652,302 648,1167 1170,2397 1559,3673 2088,5254 4802,10237 8084,14840 868,1314 1138,2934 744,4458 -4070,9637 -5678,20135 -4680,30549 2256,7210 6759,13510 12854,17975l2109 1849c1679,1807 2690,4133 2866,6593 1389,11410 3807,22672 7223,33647 770,16065 486,32163 -847,48190 1890,7359 4369,14554 7414,21516 8975,32284 15245,65260 18742,98586 2227,21303 9484,41773 21171,59722 14824,10874 27840,24017 38568,38946 6674,10030 12266,20738 16683,31946l1159 2032c124,137 300,215 485,218 156,2 301,-77 386,-207 300,-624 474,-1302 514,-1993 124,-5414 376,-10825 757,-16227l707 -2425c148,-229 396,-374 667,-392 309,-20 613,86 842,294 713,645 1236,1472 1511,2393 6353,18666 12335,37456 17942,56360 12281,21072 28966,39244 48916,53274 9039,6495 17863,13284 26456,20358 2123,1333 4639,1898 7128,1601 2430,54 4856,-225 7209,-829 431,-173 838,-400 1211,-675 886,-657 1738,-1360 2549,-2109 22751,-15682 43600,-33958 62127,-54459 1391,-1833 2768,-3676 4133,-5529l0 0z"></path> <path fill="black" d="M643633 448767c-7634,2312 -15761,-1646 -18647,-9083 -416,-899 -1079,-1663 -1911,-2202 -791,-464 -1752,-537 -2603,-199 -253,79 -493,191 -716,332 -842,533 -1665,1095 -2468,1685 -1110,646 -2130,1433 -3037,2341 -932,828 -1147,2200 -513,3273 995,1298 2346,2279 3889,2825 13641,6057 29168,6264 42966,572 4244,-972 8568,-1555 12918,-1741 820,-11 1610,-303 2238,-828 244,-207 395,-502 421,-820 33,-406 -57,-812 -259,-1167 -2210,-2923 -5056,-5305 -8323,-6964 -3230,-2286 -6780,-4085 -10533,-5338 -540,-99 -1099,15 -1558,318 -528,350 -927,863 -1135,1462l-153 1501c-61,6492 -4351,12185 -10576,14033l0 0zm-28842 -20926c2097,-734 4105,-1698 5990,-2874 80,-65 128,-161 131,-265 3,-103 -40,-202 -117,-271 -222,-197 -531,-263 -815,-175l-701 248c-1580,89 -3164,128 -4747,117 -7561,389 -14606,3957 -19393,9823 -423,654 -420,1497 6,2150 184,232 457,377 753,397 462,33 923,-53 1343,-249 1914,-1206 3836,-2399 5766,-3578 3810,-2024 7746,-3802 11784,-5323l0 0zm79131 13867c-5868,-5538 -12160,-10609 -18818,-15167 -1971,-1227 -3855,-2589 -5636,-4078 -205,-224 -312,-522 -297,-825 12,-235 152,-444 364,-545 668,-267 1406,-297 2094,-85 11444,1715 21986,7211 29946,15611l1617 1766c185,132 407,201 634,197 206,-3 405,-80 559,-216 810,-940 1313,-2105 1444,-3338 3368,-12665 -2596,-25957 -14296,-31861 -21545,-6150 -42383,-14548 -62171,-25059 -7445,-5519 -14573,-11454 -21348,-17777 -1233,-846 -2754,-1157 -4221,-866 -17606,4858 -33476,14606 -45769,28113 -6673,9604 -9427,21393 -7700,32959l972 2395c252,261 633,354 978,238 649,-218 1229,-607 1675,-1127 6807,-10731 15551,-20103 25787,-27635 1147,-670 2497,-907 3805,-669 481,114 874,458 1050,919 157,415 62,883 -244,1203 -10896,9545 -20741,20227 -29366,31864 -521,779 -803,1692 -814,2628 16,256 88,505 212,730 243,440 535,853 869,1228 11188,11924 26392,19285 42684,20665 3300,534 6527,1449 9617,2726 527,302 937,774 1162,1339 135,339 37,728 -245,962 -631,521 -1416,819 -2234,848 -4992,-331 -9939,-1152 -14771,-2450 -859,-246 -1760,-307 -2644,-179 -502,52 -907,437 -981,937l218 652c862,1083 1844,2065 2927,2929 25435,23182 64625,22189 88853,-2253 4891,-3735 9983,-7200 15251,-10381 1117,-712 1632,-2073 1266,-3346 -560,-1193 -1392,-2238 -2429,-3052l0 0z"></path> <path fill="black" d="M803478 438203c-325,-1534 -571,-3084 -737,-4643l-278 -1021c-329,-533 -892,-878 -1517,-928 -1434,-84 -2864,240 -4122,935 -5703,2620 -10919,6191 -15426,10559 -534,521 -905,1187 -1065,1917 -44,542 294,1042 812,1204 845,272 1729,401 2616,381 10358,1030 20592,3058 30558,6059 9481,410 18893,-1783 27214,-6343 819,-570 1494,-1323 1974,-2198 360,-658 305,-1466 -142,-2070 -1171,-1411 -2611,-2577 -4234,-3431 -1254,-1035 -2707,-1804 -4269,-2257 -327,-64 -668,-16 -966,135 -377,192 -698,477 -932,829 -1666,3580 -3988,6817 -6845,9543 -3967,2842 -9096,3503 -13653,1757 -4558,-1745 -7934,-5663 -8988,-10428l0 0zm46954 -11957c-4894,-1325 -9902,-2181 -14958,-2557 -185,12 -333,156 -352,341 -26,238 68,474 251,629 3143,2025 6565,3584 10156,4625 4612,1822 9037,4084 13213,6755l2401 1282c288,53 585,-11 825,-178 246,-172 416,-435 474,-730 117,-825 -86,-1665 -568,-2344 -3065,-3562 -7011,-6259 -11442,-7823l0 0zm-2088 32074c-532,-166 -915,-633 -973,-1187 7,-231 89,-453 234,-632 233,-287 521,-525 847,-699 4512,-1593 9161,-2772 13886,-3524 15068,-1740 29002,-8858 39242,-20047 1011,-1027 1306,-2560 749,-3889 -1051,-1894 -2342,-3644 -3840,-5208 -7898,-10233 -16877,-19583 -26782,-27887 -134,-167 -207,-373 -210,-586 -1,-185 70,-361 200,-492 467,-390 1058,-598 1666,-588 3205,255 6198,1699 8396,4046 7810,7346 14879,15444 21104,24174 507,648 1204,1123 1994,1356 272,75 563,25 795,-136 320,-224 563,-540 697,-906 917,-5089 980,-10295 186,-15404 -4134,-19217 -18207,-34767 -36918,-40791 -5010,-2299 -10128,-4358 -15334,-6172l-2720 -582c-983,137 -1906,553 -2660,1199 -6067,3896 -10058,10316 -10864,17481 -3151,12068 -11206,22268 -22214,28131 -669,428 -1466,611 -2255,518 -205,-31 -367,-192 -398,-396 -50,-312 20,-631 194,-895 3715,-3974 7077,-8263 10050,-12819 2136,-3402 3915,-7016 5308,-10785 278,-718 281,-1513 10,-2233 -106,-271 -317,-488 -585,-601 -281,-118 -596,-124 -881,-16 -1936,1032 -3867,2071 -5795,3119 -18633,8674 -37885,15955 -57595,21783 -11285,6727 -16433,20353 -12415,32861 207,516 639,910 1172,1070 565,170 1176,95 1682,-210 1029,-774 1962,-1669 2779,-2665 8227,-7459 18455,-12346 29426,-14058 713,-163 1457,-110 2139,153 192,79 325,257 347,463 24,227 -62,453 -233,606 -10082,6271 -19387,13713 -27720,22171 -247,362 -392,784 -420,1221 -28,433 61,864 260,1249 486,923 1211,1700 2100,2247 11717,8831 24013,16868 36804,24056 23469,10392 50954,4620 68260,-14335 305,-419 374,-964 183,-1445 -181,-456 -599,-775 -1086,-828 -1788,34 -3556,368 -5234,985 -3633,821 -7319,1383 -11032,1678 -870,-60 -1728,-245 -2546,-551l0 0z"></path> </g> </g> </svg> 